<!--Scalable Vector Graphic-->
<svg width="14px" height="14px" viewBox="0 0 14 14" version="1.1" xmlns="http://www.w3.org/2000/svg" xmlns:xlink="http://www.w3.org/1999/xlink">
	<g id="Page-1" stroke="none" stroke-width="1" fill="none" fill-rule="evenodd">
		<g id="plus" stroke="#0093D1" fill-rule="nonzero" fill="#0093D1">
			<path d="M7.54044118,7.53721034 L12.4375,7.53721034 C12.7481602,7.53721034 13,7.29524658 13,6.99676916 C13,6.69829174 12.7481602,6.45632799 12.4375,6.45632799 L7.54044118,6.45632799 L7.54044118,1.5777823 C7.54044118,1.26712213 7.29847742,1.0152823 7,1.0152823 C6.70152258,1.0152823 6.45955882,1.26712213 6.45955882,1.5777823 L6.45955882,6.45632799 L1.5625,6.45632799 C1.25183983,6.45632799 1,6.69829174 1,6.99676916 C1,7.29524658 1.25183983,7.53721034 1.5625,7.53721034 L6.45955882,7.53721034 L6.45955882,12.4527823 C6.45955882,12.7634425 6.70152258,13.0152823 7,13.0152823 C7.29847742,13.0152823 7.54044118,12.7634425 7.54044118,12.4527823 L7.54044118,7.53721034 Z"/></g></g>
</svg>
